<svg version="1.2" xmlns="http://www.w3.org/2000/svg" viewBox="0 0 32 30" width="32" height="30"><style>.a{fill:#fff}</style><path class="a" d="m25.4 13.2c-2.2-0.8-5.5 2.4-7.1 7.2q-0.3 1-0.5 2.1-0.2 1-0.3 2-0.1 1-0.1 2.1 0 1 0.1 2.1l-1-0.5c-2-6.1-0.9-12.8 2.5-17.6z"/><path class="a" d="m26.9 23.7l-7.6-3.1c1.4-4.3 4-6.8 5.6-6.8q0.1 0 0.2 0 0 0 0.1 0 0 0 0.1 0 0.1 0 0.1 0.1h0.2c0.6 0.3 2.4 1.9 1.3 9.8zm-2.8-18.8q-0.8 0.4-1.7 1-0.8 0.6-1.5 1.3-0.8 0.7-1.4 1.4-0.7 0.8-1.3 1.6c-3.3 4.9-4.5 11.5-2.7 17.6q0.1 0.3 0.1 0.6 0.1 0.2 0.2 0.5 0.1 0.3 0.2 0.6 0.1 0.2 0.2 0.5l-10.2-4.2c-3.8-9.5-0.3-20.7 7.9-25.2z"/></svg>